<svg xmlns="http://www.w3.org/2000/svg" viewBox="0 0 228.9 242.41"><defs><style>.cls-1{fill:#221427;}.cls-2{fill:#ea5253;}.cls-3{opacity:0.95;}</style></defs><title>favicon_1</title><g id="Camada_2" data-name="Camada 2"><g id="Camada_1-2" data-name="Camada 1"><g id="bg"><ellipse class="cls-1" cx="114.45" cy="121.21" rx="114.45" ry="121.21"/></g><g id="icon"><path class="cls-2" d="M62.62,195.34c1,0,3.47,0,4.41.08,6.42.32,12.85.61,19.28.82,23,.74,46.12.41,69.19.45,5.62,0,11.25,0,16.87.21-34.45-5.89-105.59-2.06-107.5-1.85"/><path class="cls-2" d="M182.75,193.65c0-.87.23-3.16.13-4-.85-7.34-1.29-13.39-1.62-19.26a348,348,0,0,1,1.43-61.68c.52-5.1,2-10.07,2.39-15.2-14.86,45.22-3.07,96.37-2.75,98.11"/><path class="cls-2" d="M48.67,192.77c0-.87-.23-3.16-.13-4,.85-7.34,1.29-13.39,1.62-19.26a348,348,0,0,0-1.43-61.68c-.52-5.11-2-10.07-2.39-15.2,14.86,45.21,3.07,96.37,2.75,98.11"/><path class="cls-2" d="M150.82,71.32a16.6,16.6,0,0,1-4.15-2.89,6,6,0,0,1-1.14-.79c-8.57-7.35-16.27-15.51-21.8-25.38-3.63-6.49-6.83-13.1-8.32-20.29,0,0-1.38-4.9-1.69-6.07a57.79,57.79,0,0,1-1.63,5.55c-4.77,19-16,33.79-30.56,46.37a5.2,5.2,0,0,1-1.08.72c-.88,1.1-2.53,1.39-3,2.39h.06a1.09,1.09,0,0,1-.11.1,1.5,1.5,0,0,0-.11.58,1.5,1.5,0,0,1,.11-.58A146.86,146.86,0,0,1,56.53,85.65C49.36,90,42,94,34.74,98.21l.76,1C71.62,88.88,102,71.7,113.93,31.41c4.18,19.76,15.23,34,30.19,45.42a114.22,114.22,0,0,0,49.36,22C178.65,90.58,163.81,82.4,150.82,71.32Z"/><ellipse class="cls-2" cx="91.93" cy="90.03" rx="8.14" ry="6.13"/><ellipse class="cls-2" cx="115.65" cy="93.66" rx="7.46" ry="6.95"/><g class="cls-3"><path class="cls-2" d="M78.68,176.77a31.82,31.82,0,0,1-6.05.71,10.56,10.56,0,0,1-4-.65l.66-62.92a17.52,17.52,0,0,1-2.89-5.78,23.94,23.94,0,0,1-1.36-5,1.81,1.81,0,0,1,.27-1.2q.27-.27,7-.66t13.52-.38a86.59,86.59,0,0,1,12.16.77,54.68,54.68,0,0,1,10.95,2.78,19.47,19.47,0,0,1,9,6.21,16.81,16.81,0,0,1,3.32,10.74,19.94,19.94,0,0,1-4,12,26.59,26.59,0,0,1-9.65,8.28q-11.77,6-21.15,7.2l-4,.44q.44,22.25,1.09,25.51Q82.22,176.06,78.68,176.77Zm3.65-39.53q24.44-2.18,24.43-15.59,0-4.37-4.53-6.82a24,24,0,0,0-11.5-2.45l-7.85.66Q82.33,117,82.33,137.24Z"/><ellipse class="cls-2" cx="92.55" cy="123.05" rx="19.34" ry="17.74" transform="translate(-61.04 133.8) rotate(-57.05)"/></g><path class="cls-1" d="M103.84,110.47c7.83,5.49,9.43,16.74,3.55,25.13s-17.84-6.3-17.84-6.3S73.13,124.12,79,115.73,96,105,103.84,110.47Z"/><ellipse class="cls-2" cx="129.75" cy="110.07" rx="7.42" ry="6.91"/><path class="cls-2" d="M137.13,174.59q-2.67,1.8-10.46,1.81t-12-4.64q-4.17-4.63-4.17-12.39a19.74,19.74,0,0,1,5-13.44q5-5.7,14-5.7a12.45,12.45,0,0,1,6.8,2c2.07,1.31,3.11,3.61,3.11,6.88s-1.43,6.52-4.29,9.71a26.87,26.87,0,0,1-11.67,7.32q0,.94,1.92,1.53a13.14,13.14,0,0,0,3.82.59c4,0,7.13-.71,9.43-2.12a.35.35,0,0,1,.24-.08c.1,0,.16.5.16,1.49A11.27,11.27,0,0,1,137.13,174.59Zm-6.84-25c0-1.52-.81-2.28-2.44-2.28-2.15,0-4,1.1-5.66,3.31a13,13,0,0,0-2.44,7.94c0,.73.11,1.1.32,1.1,1.88-.05,4.06-1.14,6.52-3.26S130.29,152,130.29,149.58Z"/><path class="cls-2" d="M161.9,123.08q-.17,1.82-.39,9.91,5.9,0,5.89.24a13.54,13.54,0,0,1-.78,4.76c-.53,1.39-1,2.08-1.5,2.08h-3.69q-.17,11.64-.16,18.91t.24,9.71a10.47,10.47,0,0,0,3.22,6.69c0,.57-1,1.41-3,2.51a12,12,0,0,1-5.7,1.65q-.24,0-.9-.78a10.17,10.17,0,0,1-1.42-2.6,12.93,12.93,0,0,1-.94-3.54q-.19-1.73-.2-12.34t.24-20.05l-4.41.07q-.39-.39-.39-3.42c0-2,.24-3.23.71-3.65,1.15,0,2.54-.11,4.17-.16a43.69,43.69,0,0,0-.24-5.9,15.4,15.4,0,0,1-.24-1.57c0-.52.91-1.13,2.72-1.81a13.79,13.79,0,0,1,4.76-1C161.22,122.77,161.9,122.88,161.9,123.08Z"/></g></g></g></svg>